<svg width="38" height="38" viewBox="0 0 38 38" fill="none" xmlns="http://www.w3.org/2000/svg">
<g id="circle-help">
<path id="Vector" d="M14.3922 14.2501C14.7645 13.1919 15.4992 12.2996 16.4663 11.7313C17.4334 11.1629 18.5705 10.9551 19.6761 11.1448C20.7817 11.3344 21.7845 11.9092 22.5069 12.7674C23.2293 13.6256 23.6247 14.7117 23.623 15.8335C23.623 19.0001 18.873 20.5835 18.873 20.5835M19 26.9167H19.0158M34.8333 19C34.8333 27.7445 27.7445 34.8333 19 34.8333C10.2555 34.8333 3.16663 27.7445 3.16663 19C3.16663 10.2555 10.2555 3.16666 19 3.16666C27.7445 3.16666 34.8333 10.2555 34.8333 19Z" stroke="#00C16A" stroke-opacity="0.75" stroke-width="2" stroke-linecap="round" stroke-linejoin="round"/>
</g>
</svg>
