<svg width="24" height="24" viewBox="0 0 24 24" fill="none" xmlns="http://www.w3.org/2000/svg">
<g id="fluent:data-line-24-regular">
<path id="Vector" d="M19 4.50001C18.6022 4.50001 18.2206 4.65805 17.9393 4.93935C17.658 5.22066 17.5 5.60219 17.5 6.00001C17.5 6.39784 17.658 6.77937 17.9393 7.06067C18.2206 7.34198 18.6022 7.50001 19 7.50001C19.3978 7.50001 19.7794 7.34198 20.0607 7.06067C20.342 6.77937 20.5 6.39784 20.5 6.00001C20.5 5.60219 20.342 5.22066 20.0607 4.93935C19.7794 4.65805 19.3978 4.50001 19 4.50001ZM16 6.00001C16.0002 5.38638 16.1885 4.78755 16.5396 4.28429C16.8907 3.78104 17.3877 3.39756 17.9636 3.18556C18.5395 2.97357 19.1665 2.94327 19.7601 3.09874C20.3537 3.25421 20.8854 3.58797 21.2834 4.05503C21.6814 4.52208 21.9266 5.09995 21.9859 5.71071C22.0453 6.32147 21.9159 6.93573 21.6153 7.47068C21.3146 8.00562 20.8572 8.4355 20.3046 8.70234C19.752 8.96919 19.1309 9.06017 18.525 8.96301L16.487 12.321C16.9188 12.9541 17.092 13.7283 16.9711 14.485C16.8502 15.2417 16.4442 15.9235 15.8366 16.3904C15.229 16.8573 14.4657 17.074 13.7034 16.996C12.9411 16.918 12.2375 16.5513 11.737 15.971L7.996 17.841C7.99867 17.893 8 17.946 8 18C7.99959 18.7225 7.73845 19.4206 7.26456 19.966C6.79068 20.5114 6.13588 20.8674 5.42051 20.9687C4.70514 21.07 3.97725 20.9097 3.3706 20.5172C2.76395 20.1248 2.3193 19.5267 2.11836 18.8327C1.91742 18.1387 1.97369 17.3955 2.27683 16.7396C2.57996 16.0838 3.10961 15.5594 3.76842 15.2628C4.42724 14.9662 5.17097 14.9173 5.86294 15.1251C6.55491 15.3329 7.14863 15.7835 7.535 16.394L11.066 14.629C10.9472 14.0763 10.987 13.5012 11.1809 12.9701C11.3747 12.4389 11.7147 11.9734 12.1616 11.6271C12.6086 11.2809 13.1442 11.0679 13.7069 11.0129C14.2696 10.9578 14.8364 11.0629 15.342 11.316L17.14 8.35401C16.7846 8.07316 16.4974 7.71548 16.3 7.30779C16.1025 6.9001 16 6.45299 16 6.00001ZM14 12.5C13.6022 12.5 13.2206 12.658 12.9393 12.9394C12.658 13.2207 12.5 13.6022 12.5 14C12.5 14.3978 12.658 14.7794 12.9393 15.0607C13.2206 15.342 13.6022 15.5 14 15.5C14.3978 15.5 14.7794 15.342 15.0607 15.0607C15.342 14.7794 15.5 14.3978 15.5 14C15.5 13.6022 15.342 13.2207 15.0607 12.9394C14.7794 12.658 14.3978 12.5 14 12.5ZM5 16.5C4.60218 16.5 4.22065 16.658 3.93934 16.9394C3.65804 17.2207 3.5 17.6022 3.5 18C3.5 18.3978 3.65804 18.7794 3.93934 19.0607C4.22065 19.342 4.60218 19.5 5 19.5C5.39783 19.5 5.77936 19.342 6.06066 19.0607C6.34197 18.7794 6.5 18.3978 6.5 18C6.5 17.6022 6.34197 17.2207 6.06066 16.9394C5.77936 16.658 5.39783 16.5 5 16.5Z" fill="#00C16A"/>
</g>
</svg>
