<svg width="204" height="72" viewBox="0 0 204 72" fill="none" xmlns="http://www.w3.org/2000/svg">
<path d="M74.04 53V31.4H77.04V40.34C77.54 39.46 78.23 38.77 79.11 38.27C80.01 37.77 81 37.52 82.08 37.52C83.28 37.52 84.31 37.77 85.17 38.27C86.03 38.75 86.69 39.48 87.15 40.46C87.61 41.42 87.84 42.63 87.84 44.09V53H84.87V44.39C84.87 42.99 84.57 41.93 83.97 41.21C83.37 40.47 82.48 40.1 81.3 40.1C80.5 40.1 79.78 40.29 79.14 40.67C78.5 41.05 77.99 41.61 77.61 42.35C77.23 43.07 77.04 43.95 77.04 44.99V53H74.04ZM91.6767 53V37.88H94.3767L94.6467 40.73C94.9867 40.05 95.4267 39.48 95.9667 39.02C96.5067 38.54 97.1367 38.17 97.8567 37.91C98.5967 37.65 99.4367 37.52 100.377 37.52V40.7H99.2967C98.6767 40.7 98.0867 40.78 97.5267 40.94C96.9667 41.08 96.4667 41.33 96.0267 41.69C95.6067 42.05 95.2767 42.54 95.0367 43.16C94.7967 43.78 94.6767 44.55 94.6767 45.47V53H91.6767ZM103.282 53V32H110.452C112.132 32 113.512 32.28 114.592 32.84C115.672 33.4 116.472 34.15 116.992 35.09C117.512 36.03 117.772 37.1 117.772 38.3C117.772 39.44 117.512 40.49 116.992 41.45C116.492 42.39 115.702 43.15 114.622 43.73C113.542 44.29 112.152 44.57 110.452 44.57H106.282V53H103.282ZM106.282 42.08H110.332C111.912 42.08 113.032 41.74 113.692 41.06C114.372 40.36 114.712 39.44 114.712 38.3C114.712 37.08 114.372 36.14 113.692 35.48C113.032 34.82 111.912 34.49 110.332 34.49H106.282V42.08ZM120.856 53V37.88H123.556L123.826 40.73C124.166 40.05 124.606 39.48 125.146 39.02C125.686 38.54 126.316 38.17 127.036 37.91C127.776 37.65 128.616 37.52 129.556 37.52V40.7H128.476C127.856 40.7 127.266 40.78 126.706 40.94C126.146 41.08 125.646 41.33 125.206 41.69C124.786 42.05 124.456 42.54 124.216 43.16C123.976 43.78 123.856 44.55 123.856 45.47V53H120.856ZM138.712 53.36C137.272 53.36 135.992 53.03 134.872 52.37C133.752 51.71 132.872 50.79 132.232 49.61C131.612 48.43 131.302 47.06 131.302 45.5C131.302 43.9 131.612 42.51 132.232 41.33C132.872 40.13 133.752 39.2 134.872 38.54C135.992 37.86 137.292 37.52 138.772 37.52C140.252 37.52 141.522 37.85 142.582 38.51C143.642 39.17 144.462 40.05 145.042 41.15C145.622 42.23 145.912 43.43 145.912 44.75C145.912 44.95 145.902 45.17 145.882 45.41C145.882 45.63 145.872 45.88 145.852 46.16H133.492V44.03H142.912C142.852 42.77 142.432 41.79 141.652 41.09C140.872 40.37 139.902 40.01 138.742 40.01C137.922 40.01 137.172 40.2 136.492 40.58C135.812 40.94 135.262 41.48 134.842 42.2C134.442 42.9 134.242 43.79 134.242 44.87V45.71C134.242 46.83 134.442 47.78 134.842 48.56C135.262 49.32 135.812 49.9 136.492 50.3C137.172 50.68 137.912 50.87 138.712 50.87C139.672 50.87 140.462 50.66 141.082 50.24C141.702 49.82 142.162 49.25 142.462 48.53H145.462C145.202 49.45 144.762 50.28 144.142 51.02C143.522 51.74 142.752 52.31 141.832 52.73C140.932 53.15 139.892 53.36 138.712 53.36ZM155.965 53.36C154.525 53.36 153.255 53.02 152.155 52.34C151.055 51.64 150.195 50.7 149.575 49.52C148.975 48.32 148.675 46.96 148.675 45.44C148.675 43.9 148.975 42.54 149.575 41.36C150.195 40.18 151.055 39.25 152.155 38.57C153.275 37.87 154.555 37.52 155.995 37.52C157.175 37.52 158.215 37.76 159.115 38.24C160.015 38.7 160.715 39.36 161.215 40.22V31.4H164.215V53H161.515L161.215 50.66C160.915 51.12 160.525 51.56 160.045 51.98C159.565 52.38 158.985 52.71 158.305 52.97C157.625 53.23 156.845 53.36 155.965 53.36ZM156.445 50.75C157.385 50.75 158.215 50.53 158.935 50.09C159.655 49.65 160.205 49.03 160.585 48.23C160.985 47.43 161.185 46.5 161.185 45.44C161.185 44.38 160.985 43.46 160.585 42.68C160.205 41.88 159.655 41.26 158.935 40.82C158.215 40.36 157.385 40.13 156.445 40.13C155.545 40.13 154.735 40.36 154.015 40.82C153.295 41.26 152.735 41.88 152.335 42.68C151.935 43.46 151.735 44.38 151.735 45.44C151.735 46.5 151.935 47.43 152.335 48.23C152.735 49.03 153.295 49.65 154.015 50.09C154.735 50.53 155.545 50.75 156.445 50.75ZM168.527 53V37.88H171.527V53H168.527ZM170.057 35.03C169.477 35.03 168.997 34.85 168.617 34.49C168.257 34.13 168.077 33.67 168.077 33.11C168.077 32.57 168.257 32.13 168.617 31.79C168.997 31.43 169.477 31.25 170.057 31.25C170.617 31.25 171.087 31.43 171.467 31.79C171.847 32.13 172.037 32.57 172.037 33.11C172.037 33.67 171.847 34.13 171.467 34.49C171.087 34.85 170.617 35.03 170.057 35.03ZM182.807 53.36C181.347 53.36 180.047 53.03 178.907 52.37C177.767 51.69 176.867 50.76 176.207 49.58C175.567 48.4 175.247 47.03 175.247 45.47C175.247 43.89 175.567 42.51 176.207 41.33C176.867 40.13 177.767 39.2 178.907 38.54C180.047 37.86 181.347 37.52 182.807 37.52C184.647 37.52 186.187 38 187.427 38.96C188.667 39.92 189.457 41.22 189.797 42.86H186.677C186.477 41.98 186.017 41.3 185.297 40.82C184.597 40.34 183.757 40.1 182.777 40.1C181.977 40.1 181.237 40.31 180.557 40.73C179.877 41.13 179.327 41.73 178.907 42.53C178.507 43.31 178.307 44.28 178.307 45.44C178.307 46.3 178.427 47.07 178.667 47.75C178.907 48.41 179.227 48.97 179.627 49.43C180.047 49.89 180.527 50.24 181.067 50.48C181.607 50.7 182.177 50.81 182.777 50.81C183.437 50.81 184.027 50.71 184.547 50.51C185.087 50.29 185.537 49.97 185.897 49.55C186.277 49.13 186.537 48.63 186.677 48.05H189.797C189.457 49.65 188.667 50.94 187.427 51.92C186.187 52.88 184.647 53.36 182.807 53.36ZM199.225 53C198.265 53 197.435 52.85 196.735 52.55C196.035 52.25 195.495 51.75 195.115 51.05C194.735 50.35 194.545 49.4 194.545 48.2V40.43H191.935V37.88H194.545L194.905 34.1H197.545V37.88H201.835V40.43H197.545V48.23C197.545 49.09 197.725 49.68 198.085 50C198.445 50.3 199.065 50.45 199.945 50.45H201.685V53H199.225Z" fill="#00C16A"/>
<path d="M54.225 25.2C54.4614 25.3773 54.6605 25.5994 54.8111 25.8536C54.9616 26.1079 55.0606 26.3893 55.1024 26.6818C55.1442 26.9743 55.1279 27.2722 55.0546 27.5584C54.9813 27.8446 54.8523 28.1136 54.675 28.35L47.925 37.35C47.567 37.8274 47.034 38.143 46.4432 38.2274C45.8525 38.3118 45.2524 38.158 44.775 37.8C44.2976 37.442 43.982 36.9089 43.8976 36.3182C43.8132 35.7275 43.967 35.1274 44.325 34.65L51.075 25.65C51.4331 25.1726 51.9661 24.857 52.5568 24.7726C53.1476 24.6882 53.7476 24.842 54.225 25.2Z" fill="black"/>
<path d="M54.225 25.2C54.4614 25.3773 54.6605 25.5994 54.8111 25.8536C54.9616 26.1079 55.0606 26.3893 55.1024 26.6818C55.1442 26.9743 55.1279 27.2722 55.0546 27.5584C54.9813 27.8446 54.8523 28.1136 54.675 28.35L47.925 37.35C47.567 37.8274 47.034 38.143 46.4432 38.2274C45.8525 38.3118 45.2524 38.158 44.775 37.8C44.2976 37.442 43.982 36.9089 43.8976 36.3182C43.8132 35.7275 43.967 35.1274 44.325 34.65L51.075 25.65C51.4331 25.1726 51.9661 24.857 52.5568 24.7726C53.1476 24.6882 53.7476 24.842 54.225 25.2Z" fill="url(#paint0_linear_3599_1599)"/>
<path d="M54.225 25.2C54.4614 25.3773 54.6605 25.5994 54.8111 25.8536C54.9616 26.1079 55.0606 26.3893 55.1024 26.6818C55.1442 26.9743 55.1279 27.2722 55.0546 27.5584C54.9813 27.8446 54.8523 28.1136 54.675 28.35L47.925 37.35C47.567 37.8274 47.034 38.143 46.4432 38.2274C45.8525 38.3118 45.2524 38.158 44.775 37.8C44.2976 37.442 43.982 36.9089 43.8976 36.3182C43.8132 35.7275 43.967 35.1274 44.325 34.65L51.075 25.65C51.4331 25.1726 51.9661 24.857 52.5568 24.7726C53.1476 24.6882 53.7476 24.842 54.225 25.2Z" fill="url(#paint1_radial_3599_1599)"/>
<path d="M54.225 25.2C54.4614 25.3773 54.6605 25.5994 54.8111 25.8536C54.9616 26.1079 55.0606 26.3893 55.1024 26.6818C55.1442 26.9743 55.1279 27.2722 55.0546 27.5584C54.9813 27.8446 54.8523 28.1136 54.675 28.35L47.925 37.35C47.567 37.8274 47.034 38.143 46.4432 38.2274C45.8525 38.3118 45.2524 38.158 44.775 37.8C44.2976 37.442 43.982 36.9089 43.8976 36.3182C43.8132 35.7275 43.967 35.1274 44.325 34.65L51.075 25.65C51.4331 25.1726 51.9661 24.857 52.5568 24.7726C53.1476 24.6882 53.7476 24.842 54.225 25.2Z" fill="url(#paint2_radial_3599_1599)"/>
<path d="M54.225 25.2C54.4614 25.3773 54.6605 25.5994 54.8111 25.8536C54.9616 26.1079 55.0606 26.3893 55.1024 26.6818C55.1442 26.9743 55.1279 27.2722 55.0546 27.5584C54.9813 27.8446 54.8523 28.1136 54.675 28.35L47.925 37.35C47.567 37.8274 47.034 38.143 46.4432 38.2274C45.8525 38.3118 45.2524 38.158 44.775 37.8C44.2976 37.442 43.982 36.9089 43.8976 36.3182C43.8132 35.7275 43.967 35.1274 44.325 34.65L51.075 25.65C51.4331 25.1726 51.9661 24.857 52.5568 24.7726C53.1476 24.6882 53.7476 24.842 54.225 25.2Z" fill="url(#paint3_radial_3599_1599)"/>
<path d="M38.1353 44.2889C38.2287 44.5693 38.266 44.8654 38.245 45.1602C38.224 45.455 38.1451 45.7428 38.0128 46.0071C37.8806 46.2714 37.6975 46.5071 37.4741 46.7006C37.2508 46.8942 36.9915 47.0419 36.711 47.1352L23.211 51.6352C22.6447 51.8237 22.0267 51.7796 21.4929 51.5125C20.9592 51.2454 20.5533 50.7772 20.3648 50.2109C20.1762 49.6446 20.2203 49.0266 20.4874 48.4928C20.7545 47.959 21.2227 47.5532 21.789 47.3647L35.289 42.8647C35.5694 42.7712 35.8655 42.7339 36.1603 42.755C36.4551 42.776 36.7429 42.8549 37.0072 42.9871C37.2715 43.1194 37.5072 43.3024 37.7008 43.5258C37.8943 43.7492 38.042 44.0085 38.1353 44.2889Z" fill="black"/>
<path d="M38.1353 44.2889C38.2287 44.5693 38.266 44.8654 38.245 45.1602C38.224 45.455 38.1451 45.7428 38.0128 46.0071C37.8806 46.2714 37.6975 46.5071 37.4741 46.7006C37.2508 46.8942 36.9915 47.0419 36.711 47.1352L23.211 51.6352C22.6447 51.8237 22.0267 51.7796 21.4929 51.5125C20.9592 51.2454 20.5533 50.7772 20.3648 50.2109C20.1762 49.6446 20.2203 49.0266 20.4874 48.4928C20.7545 47.959 21.2227 47.5532 21.789 47.3647L35.289 42.8647C35.5694 42.7712 35.8655 42.7339 36.1603 42.755C36.4551 42.776 36.7429 42.8549 37.0072 42.9871C37.2715 43.1194 37.5072 43.3024 37.7008 43.5258C37.8943 43.7492 38.042 44.0085 38.1353 44.2889Z" fill="url(#paint4_linear_3599_1599)"/>
<path d="M38.1353 44.2889C38.2287 44.5693 38.266 44.8654 38.245 45.1602C38.224 45.455 38.1451 45.7428 38.0128 46.0071C37.8806 46.2714 37.6975 46.5071 37.4741 46.7006C37.2508 46.8942 36.9915 47.0419 36.711 47.1352L23.211 51.6352C22.6447 51.8237 22.0267 51.7796 21.4929 51.5125C20.9592 51.2454 20.5533 50.7772 20.3648 50.2109C20.1762 49.6446 20.2203 49.0266 20.4874 48.4928C20.7545 47.959 21.2227 47.5532 21.789 47.3647L35.289 42.8647C35.5694 42.7712 35.8655 42.7339 36.1603 42.755C36.4551 42.776 36.7429 42.8549 37.0072 42.9871C37.2715 43.1194 37.5072 43.3024 37.7008 43.5258C37.8943 43.7492 38.042 44.0085 38.1353 44.2889Z" fill="url(#paint5_radial_3599_1599)"/>
<path d="M38.1353 44.2889C38.2287 44.5693 38.266 44.8654 38.245 45.1602C38.224 45.455 38.1451 45.7428 38.0128 46.0071C37.8806 46.2714 37.6975 46.5071 37.4741 46.7006C37.2508 46.8942 36.9915 47.0419 36.711 47.1352L23.211 51.6352C22.6447 51.8237 22.0267 51.7796 21.4929 51.5125C20.9592 51.2454 20.5533 50.7772 20.3648 50.2109C20.1762 49.6446 20.2203 49.0266 20.4874 48.4928C20.7545 47.959 21.2227 47.5532 21.789 47.3647L35.289 42.8647C35.5694 42.7712 35.8655 42.7339 36.1603 42.755C36.4551 42.776 36.7429 42.8549 37.0072 42.9871C37.2715 43.1194 37.5072 43.3024 37.7008 43.5258C37.8943 43.7492 38.042 44.0085 38.1353 44.2889Z" fill="url(#paint6_radial_3599_1599)"/>
<path d="M38.1353 44.2889C38.2287 44.5693 38.266 44.8654 38.245 45.1602C38.224 45.455 38.1451 45.7428 38.0128 46.0071C37.8806 46.2714 37.6975 46.5071 37.4741 46.7006C37.2508 46.8942 36.9915 47.0419 36.711 47.1352L23.211 51.6352C22.6447 51.8237 22.0267 51.7796 21.4929 51.5125C20.9592 51.2454 20.5533 50.7772 20.3648 50.2109C20.1762 49.6446 20.2203 49.0266 20.4874 48.4928C20.7545 47.959 21.2227 47.5532 21.789 47.3647L35.289 42.8647C35.5694 42.7712 35.8655 42.7339 36.1603 42.755C36.4551 42.776 36.7429 42.8549 37.0072 42.9871C37.2715 43.1194 37.5072 43.3024 37.7008 43.5258C37.8943 43.7492 38.042 44.0085 38.1353 44.2889Z" fill="url(#paint7_radial_3599_1599)"/>
<path d="M15.75 42.75C13.3631 42.75 11.0739 43.6982 9.38604 45.386C7.69821 47.0739 6.75 49.3631 6.75 51.75C6.75 54.1369 7.69821 56.4261 9.38604 58.114C11.0739 59.8018 13.3631 60.75 15.75 60.75C18.1369 60.75 20.4261 59.8018 22.114 58.114C23.8018 56.4261 24.75 54.1369 24.75 51.75C24.75 49.3631 23.8018 47.0739 22.114 45.386C20.4261 43.6982 18.1369 42.75 15.75 42.75Z" fill="black"/>
<path d="M15.75 42.75C13.3631 42.75 11.0739 43.6982 9.38604 45.386C7.69821 47.0739 6.75 49.3631 6.75 51.75C6.75 54.1369 7.69821 56.4261 9.38604 58.114C11.0739 59.8018 13.3631 60.75 15.75 60.75C18.1369 60.75 20.4261 59.8018 22.114 58.114C23.8018 56.4261 24.75 54.1369 24.75 51.75C24.75 49.3631 23.8018 47.0739 22.114 45.386C20.4261 43.6982 18.1369 42.75 15.75 42.75Z" fill="url(#paint8_linear_3599_1599)"/>
<path d="M42.75 33.75C40.3631 33.75 38.0739 34.6982 36.386 36.386C34.6982 38.0739 33.75 40.3631 33.75 42.75C33.75 45.1369 34.6982 47.4261 36.386 49.114C38.0739 50.8018 40.3631 51.75 42.75 51.75C45.1369 51.75 47.4261 50.8018 49.114 49.114C50.8018 47.4261 51.75 45.1369 51.75 42.75C51.75 40.3631 50.8018 38.0739 49.114 36.386C47.4261 34.6982 45.1369 33.75 42.75 33.75Z" fill="black"/>
<path d="M42.75 33.75C40.3631 33.75 38.0739 34.6982 36.386 36.386C34.6982 38.0739 33.75 40.3631 33.75 42.75C33.75 45.1369 34.6982 47.4261 36.386 49.114C38.0739 50.8018 40.3631 51.75 42.75 51.75C45.1369 51.75 47.4261 50.8018 49.114 49.114C50.8018 47.4261 51.75 45.1369 51.75 42.75C51.75 40.3631 50.8018 38.0739 49.114 36.386C47.4261 34.6982 45.1369 33.75 42.75 33.75Z" fill="url(#paint9_linear_3599_1599)"/>
<path d="M56.25 11.25C53.8631 11.25 51.5739 12.1982 49.886 13.886C48.1982 15.5739 47.25 17.8631 47.25 20.25C47.25 22.6369 48.1982 24.9261 49.886 26.614C51.5739 28.3018 53.8631 29.25 56.25 29.25C58.6369 29.25 60.9261 28.3018 62.614 26.614C64.3018 24.9261 65.25 22.6369 65.25 20.25C65.25 17.8631 64.3018 15.5739 62.614 13.886C60.9261 12.1982 58.6369 11.25 56.25 11.25Z" fill="black"/>
<path d="M56.25 11.25C53.8631 11.25 51.5739 12.1982 49.886 13.886C48.1982 15.5739 47.25 17.8631 47.25 20.25C47.25 22.6369 48.1982 24.9261 49.886 26.614C51.5739 28.3018 53.8631 29.25 56.25 29.25C58.6369 29.25 60.9261 28.3018 62.614 26.614C64.3018 24.9261 65.25 22.6369 65.25 20.25C65.25 17.8631 64.3018 15.5739 62.614 13.886C60.9261 12.1982 58.6369 11.25 56.25 11.25Z" fill="url(#paint10_linear_3599_1599)"/>
<defs>
<linearGradient id="paint0_linear_3599_1599" x1="20.25" y1="24.75" x2="56.1803" y2="63.1283" gradientUnits="userSpaceOnUse">
<stop stop-color="#B9C0C7"/>
<stop offset="1" stop-color="#70777D"/>
</linearGradient>
<radialGradient id="paint1_radial_3599_1599" cx="0" cy="0" r="1" gradientUnits="userSpaceOnUse" gradientTransform="translate(15.75 51.75) rotate(10.3048) scale(12.5779 13.7701)">
<stop offset="0.549" stop-color="#70777D"/>
<stop offset="1" stop-color="#70777D" stop-opacity="0"/>
</radialGradient>
<radialGradient id="paint2_radial_3599_1599" cx="0" cy="0" r="1" gradientUnits="userSpaceOnUse" gradientTransform="translate(56.25 20.25) rotate(90) scale(12.375 15.9456)">
<stop offset="0.549" stop-color="#70777D"/>
<stop offset="1" stop-color="#70777D" stop-opacity="0"/>
</radialGradient>
<radialGradient id="paint3_radial_3599_1599" cx="0" cy="0" r="1" gradientUnits="userSpaceOnUse" gradientTransform="translate(42.75 42.75) scale(13.5 12.1898)">
<stop offset="0.549" stop-color="#70777D"/>
<stop offset="1" stop-color="#70777D" stop-opacity="0"/>
</radialGradient>
<linearGradient id="paint4_linear_3599_1599" x1="20.25" y1="24.7499" x2="56.1803" y2="63.1282" gradientUnits="userSpaceOnUse">
<stop stop-color="#B9C0C7"/>
<stop offset="1" stop-color="#70777D"/>
</linearGradient>
<radialGradient id="paint5_radial_3599_1599" cx="0" cy="0" r="1" gradientUnits="userSpaceOnUse" gradientTransform="translate(15.75 51.7499) rotate(10.3048) scale(12.5779 13.7701)">
<stop offset="0.549" stop-color="#70777D"/>
<stop offset="1" stop-color="#70777D" stop-opacity="0"/>
</radialGradient>
<radialGradient id="paint6_radial_3599_1599" cx="0" cy="0" r="1" gradientUnits="userSpaceOnUse" gradientTransform="translate(56.25 20.2499) rotate(90) scale(12.375 15.9456)">
<stop offset="0.549" stop-color="#70777D"/>
<stop offset="1" stop-color="#70777D" stop-opacity="0"/>
</radialGradient>
<radialGradient id="paint7_radial_3599_1599" cx="0" cy="0" r="1" gradientUnits="userSpaceOnUse" gradientTransform="translate(42.75 42.7499) scale(13.5 12.1898)">
<stop offset="0.549" stop-color="#70777D"/>
<stop offset="1" stop-color="#70777D" stop-opacity="0"/>
</radialGradient>
<linearGradient id="paint8_linear_3599_1599" x1="9" y1="43.4993" x2="28.3613" y2="66.4043" gradientUnits="userSpaceOnUse">
<stop stop-color="#36F1A2"/>
<stop offset="1" stop-color="#00D47B"/>
</linearGradient>
<linearGradient id="paint9_linear_3599_1599" x1="51.75" y1="51.75" x2="22.95" y2="22.95" gradientUnits="userSpaceOnUse">
<stop stop-color="#37CD3D"/>
<stop offset="0.641" stop-color="#71EFEF"/>
</linearGradient>
<linearGradient id="paint10_linear_3599_1599" x1="63.7493" y1="25.9493" x2="50.85" y2="11.25" gradientUnits="userSpaceOnUse">
<stop stop-color="#C1E23C"/>
<stop offset="1" stop-color="#71EFE0"/>
</linearGradient>
</defs>
</svg>
